<?xml version="1.0" encoding="utf-8"?>
<!-- Generator: Adobe Illustrator 22.0.1, SVG Export Plug-In . SVG Version: 6.00 Build 0)  -->
<svg version="1.1" id="Layer_1" xmlns="http://www.w3.org/2000/svg" xmlns:xlink="http://www.w3.org/1999/xlink" x="0px" y="0px"
	 viewBox="0 0 637.2 637.2" style="enable-background:new 0 0 637.2 637.2;" xml:space="preserve">
<style type="text/css">
	.st0{fill:#FF69D9;}
	.st1{fill:#FFFFFF;}
</style>
<g>
	<circle class="st0" cx="318.6" cy="318.6" r="318.6"/>
	<path class="st1" d="M248.3,328.4h36.6v138.9h52V328.4h50.4l1.6-50.4h-53.6c0-20.7,0-31.3,0-35c0,0,0,0,0-1.6
		c0-13.8,3.7-22.8,20.7-22.8c15.9,0,31.3,0,31.3,0l1.6-47.2c0,0-13.8-1.6-35-1.6c-48.3,0.5-68.9,31.8-68.9,64.7
		c0,22.8,0,43.5,0,43.5h-36.6V328.4z"/>
</g>
</svg>
