<?xml version="1.0" encoding="utf-8"?>
<!-- Generator: Adobe Illustrator 22.0.1, SVG Export Plug-In . SVG Version: 6.00 Build 0)  -->
<svg version="1.1" id="Layer_1" xmlns="http://www.w3.org/2000/svg" xmlns:xlink="http://www.w3.org/1999/xlink" x="0px" y="0px"
	 viewBox="0 0 637.2 637.2" style="enable-background:new 0 0 637.2 637.2;" xml:space="preserve">
<style type="text/css">
	.st0{fill:#FF69D9;}
	.st1{fill:#FFFFFF;}
</style>
<g>
	<circle class="st0" cx="318.6" cy="318.6" r="318.6"/>
	<g>
		<path class="st1" d="M465.3,257.8c-0.7-15.7-3.2-26.5-6.9-35.8c-3.7-9.9-9.5-18.8-17.1-26.2c-7.4-7.5-16.3-13.3-26.1-17
			c-9.4-3.6-20.1-6.2-35.8-6.9c-15.8-0.7-20.8-0.9-60.9-0.9s-45.1,0.2-60.8,0.9c-15.7,0.7-26.5,3.2-35.8,6.9
			c-9.9,3.7-18.8,9.5-26.2,17.1c-7.5,7.4-13.3,16.3-17,26.1c-3.6,9.4-6.2,20.1-6.9,35.8c-0.7,15.8-0.9,20.8-0.9,60.9
			s0.2,45.1,0.9,60.8c0.7,15.7,3.2,26.5,6.9,35.8c3.7,9.9,9.6,18.8,17.1,26.2c7.4,7.5,16.3,13.3,26.1,17c9.4,3.6,20.1,6.2,35.8,6.9
			c15.7,0.7,20.7,0.9,60.8,0.9s45.1-0.2,60.8-0.9c15.7-0.7,26.5-3.2,35.8-6.9c19.8-7.7,35.5-23.3,43.2-43.2
			c3.6-9.4,6.2-20.1,6.9-35.8c0.7-15.7,0.9-20.7,0.9-60.8S466,273.6,465.3,257.8z M438.8,378.3c-0.6,14.4-3.1,22.2-5.1,27.4
			c-5,12.9-15.2,23.1-28,28c-5.2,2-13,4.4-27.4,5.1c-15.6,0.7-20.2,0.9-59.6,0.9s-44.1-0.2-59.6-0.9c-14.4-0.6-22.2-3.1-27.4-5.1
			c-6.4-2.4-12.2-6.1-16.9-11c-4.9-4.8-8.6-10.5-11-16.9c-2-5.2-4.4-13-5.1-27.4c-0.7-15.6-0.9-20.2-0.9-59.6s0.2-44.1,0.9-59.6
			c0.6-14.4,3.1-22.2,5.1-27.4c2.4-6.4,6.1-12.2,11.1-16.9c4.8-4.9,10.5-8.6,16.9-11c5.2-2,13-4.4,27.4-5.1
			c15.6-0.7,20.2-0.9,59.6-0.9c39.4,0,44.1,0.2,59.6,0.9c14.4,0.6,22.2,3.1,27.4,5.1c6.4,2.4,12.2,6.1,16.9,11
			c4.9,4.8,8.6,10.5,11,16.9c2,5.2,4.4,13,5.1,27.4c0.7,15.6,0.9,20.2,0.9,59.6S439.5,362.7,438.8,378.3z"/>
		<path class="st1" d="M318.7,242.8c-41.8,0-75.8,33.9-75.8,75.8c0,41.8,34,75.8,75.8,75.8c41.8,0,75.8-33.9,75.8-75.8
			C394.5,276.8,360.5,242.8,318.7,242.8z M318.7,367.8c-27.1,0-49.2-22-49.2-49.2c0-27.1,22-49.2,49.2-49.2
			c27.1,0,49.2,22,49.2,49.2C367.8,345.8,345.8,367.8,318.7,367.8z"/>
		<path class="st1" d="M397.4,222.1c-9.8,0-17.7,7.9-17.7,17.7c0,9.8,7.9,17.7,17.7,17.7c9.8,0,17.7-7.9,17.7-17.7
			C415.1,230.1,407.2,222.1,397.4,222.1z"/>
	</g>
</g>
</svg>
