<?xml version="1.0" encoding="utf-8"?>
<!-- Generator: Adobe Illustrator 22.0.1, SVG Export Plug-In . SVG Version: 6.00 Build 0)  -->
<svg version="1.1" id="Layer_1" xmlns="http://www.w3.org/2000/svg" xmlns:xlink="http://www.w3.org/1999/xlink" x="0px" y="0px"
	 viewBox="0 0 637.2 637.2" style="enable-background:new 0 0 637.2 637.2;" xml:space="preserve">
<style type="text/css">
	.st0{fill:#FF69D9;}
	.st1{fill:#FFFFFF;}
</style>
<g>
	<circle class="st0" cx="318.6" cy="318.6" r="318.6"/>
	<g>
		<path class="st1" d="M414.9,325.7c-8.4-8.8-14.5-14.5-28.7-17.2v-1.5c10.3-4.6,18-10.7,23.7-18.3c5.7-8,8.4-17.2,8.4-27.5
			c0-8.8-1.9-16.8-6.1-23.7c-4.2-6.9-10.3-12.6-18.7-16.8c-8-3.8-16-6.5-24.5-7.6c-8-1.1-26.4-1.5-43.9-1.5h-85.2v214.4h95.9
			c16,0,29-1.5,39.4-4.2c10.3-2.7,19.9-7.3,28.7-13.4c7.3-5.3,13.4-12.2,17.6-20.3s6.5-17.2,6.5-27.9
			C427.5,345.9,423.3,334.5,414.9,325.7z M350.3,379.5c-4.2,2.3-10.3,3.4-18,3.4h-32.9v-50.8h33.6c7.6,0,13.4,1.1,18,3.1
			c7.6,3.8,11.5,10.7,11.5,20.6C362.2,367.7,358,375.7,350.3,379.5z M347.3,291.3c-5,3.1-11.1,4.6-18.7,4.6h-29v-42H324
			c8.4,0,15.7,1.1,21,3.1c6.5,2.7,9.6,8.8,9.6,17.6C354.5,282.9,351.9,288.2,347.3,291.3z"/>
	</g>
</g>
</svg>
