<?xml version="1.0" encoding="utf-8"?>
<!-- Generator: Adobe Illustrator 22.0.1, SVG Export Plug-In . SVG Version: 6.00 Build 0)  -->
<svg version="1.1" id="Layer_1" xmlns="http://www.w3.org/2000/svg" xmlns:xlink="http://www.w3.org/1999/xlink" x="0px" y="0px"
	 viewBox="0 0 637.2 637.2" style="enable-background:new 0 0 637.2 637.2;" xml:space="preserve">
<style type="text/css">
	.st0{fill:#FF69D9;}
	.st1{fill:#FFFFFF;}
</style>
<g>
	<g>
		<circle class="st0" cx="318.6" cy="318.6" r="318.6"/>
	</g>
	<path id="path26" class="st1" d="M442.8,221.1c-5-13-12.4-20.7-20.2-28s-21.6-14.3-33.1-16.7c-8.3-2.1-20.4-3.1-36-3.1h-121v144.4
		h-19.8v32.4h19.8v24.1h-19.8v32.4h19.8v78.5h34.7v-78.5h124.3v-32.4H267.2v-24.1h2.2h86.9c33.4,0,57.4-9.3,72.3-27.5
		c14.3-17.4,23-32.6,23-59.2C451.6,248,447.3,233.8,442.8,221.1L442.8,221.1z M397.2,303L397.2,303c-8.7,10-20.2,14.8-40.4,14.8
		h-87.4l0,0h-2.2V206.5h88.8c14.2,0,24,0.9,29.1,2.7c8.3,5.3,14.9,9.4,19.7,18.4c5,9.4,7.5,20.5,7.5,33.2
		C412.5,279,405.4,293.3,397.2,303L397.2,303z"/>
</g>
</svg>
