<svg width="137" height="41" viewBox="0 0 137 41" fill="none" xmlns="http://www.w3.org/2000/svg">
<path d="M51.2352 2.98065C52.0051 2.98065 52.5594 3.10376 52.9289 3.34996C53.2985 3.59617 53.5448 3.87315 53.6988 4.15013C53.7912 4.36556 53.8528 4.55022 53.8528 4.73487C53.8836 4.91952 53.8836 5.0734 53.8836 5.16573C53.8836 5.56581 53.7912 5.87357 53.6372 6.11978C53.4832 6.36598 53.2985 6.55064 53.0829 6.67374C52.9597 6.76607 52.8673 6.79684 52.7442 6.8584C52.621 6.88917 52.5286 6.91995 52.467 6.95072V6.9815C52.4978 6.9815 52.5286 6.9815 52.5594 7.01227C52.5902 7.01227 52.621 7.01227 52.6518 7.04305C53.0521 7.16615 53.4525 7.38158 53.7912 7.72012C54.1299 8.05865 54.3147 8.55106 54.3147 9.19735C54.3147 9.93597 54.1299 10.4899 53.7296 10.8285C53.3293 11.167 52.8981 11.3824 52.4362 11.5055C52.1591 11.5671 51.9127 11.5979 51.6663 11.6286C51.42 11.6286 51.2044 11.6594 51.0196 11.6594H46.8931V3.0422H51.2352V2.98065ZM48.9256 6.39676H50.8041C50.8349 6.39676 50.8964 6.39676 50.9272 6.39676C50.958 6.39676 51.0196 6.39676 51.0504 6.36598C51.2352 6.33521 51.42 6.24288 51.5739 6.11978C51.7279 5.9659 51.8203 5.78124 51.8203 5.50426C51.8203 5.16573 51.7279 4.9503 51.5431 4.8272C51.3584 4.70409 51.1428 4.61177 50.8964 4.61177C50.8657 4.61177 50.8349 4.61177 50.8349 4.61177C50.8041 4.61177 50.7733 4.61177 50.7425 4.61177H48.9563V6.39676H48.9256ZM48.9256 10.0283H51.0504C51.112 10.0283 51.1736 10.0283 51.266 9.99752C51.3584 9.99752 51.42 9.96675 51.5124 9.93597C51.6663 9.87442 51.8203 9.78209 51.9435 9.62821C52.0667 9.47433 52.1591 9.2589 52.1591 8.98192C52.1591 8.55106 52.0051 8.27408 51.7279 8.18175C51.4508 8.05865 51.1428 7.9971 50.8041 7.9971C50.8041 7.9971 50.8041 7.9971 50.7733 7.9971C50.7425 7.9971 50.7733 7.9971 50.7425 7.9971H48.8948V10.0283H48.9256Z" fill="#231F20"/>
<path d="M55.145 4.67324V3.01135H62.3819V4.67324H59.7643V11.6286H57.7318V4.67324H55.145Z" fill="#231F20"/>
<path d="M67.4945 11.8748C65.9239 11.8748 64.7845 11.4132 64.1378 10.4591C63.4911 9.50508 63.1523 8.48948 63.1523 7.32001C63.1523 7.22768 63.1523 7.16613 63.1523 7.0738C63.1523 6.98147 63.1523 6.91992 63.1831 6.8276C63.2447 5.812 63.6143 4.85795 64.261 4.027C64.9077 3.16528 65.9855 2.7652 67.5253 2.7652C69.065 2.7652 70.1737 3.19606 70.8204 4.05778C71.4671 4.9195 71.8058 5.87355 71.8982 6.88915C71.8982 6.9507 71.8982 7.04303 71.8982 7.10458C71.8982 7.16613 71.8982 7.25846 71.8982 7.32001C71.8982 7.38156 71.8982 7.47389 71.8982 7.53544C71.8982 7.59699 71.8982 7.68932 71.8982 7.75087C71.8366 8.76647 71.4671 9.72051 70.8204 10.5822C70.1429 11.4132 69.0342 11.844 67.4945 11.8748ZM68.9111 9.65896C69.219 9.32043 69.4038 8.95112 69.527 8.52026C69.5886 8.30483 69.6194 8.05862 69.6501 7.84319C69.6501 7.62776 69.6809 7.44311 69.6809 7.28923C69.6809 7.13535 69.6809 6.9507 69.6501 6.73527C69.6194 6.51984 69.5886 6.30441 69.5578 6.08898C69.4654 5.65812 69.2498 5.28881 68.9419 4.95027C68.6339 4.61174 68.172 4.42709 67.5253 4.42709C66.7554 4.42709 66.2011 4.67329 65.8931 5.1657C65.5852 5.65812 65.4312 6.21208 65.3696 6.79682C65.3696 6.88915 65.3696 6.9507 65.3388 7.04302C65.3388 7.13535 65.3388 7.1969 65.3388 7.28923C65.3388 7.38156 65.3388 7.47389 65.3388 7.59699C65.3388 7.68932 65.3388 7.78164 65.3696 7.90475C65.4312 8.48949 65.616 9.01267 65.8931 9.47431C66.2011 9.93594 66.7246 10.1821 67.4945 10.1821C68.1412 10.1821 68.6031 10.0283 68.9111 9.65896Z" fill="#231F20"/>
<path d="M77.3799 2.98065C78.6117 2.98065 79.4432 3.25763 79.8743 3.8116C80.3054 4.36556 80.5518 5.01185 80.5518 5.75047C80.5518 6.61219 80.367 7.25848 79.9667 7.65856C79.5971 8.05865 79.166 8.33563 78.7041 8.45873C78.4577 8.55106 78.2114 8.58184 77.965 8.61261C77.7186 8.64339 77.5031 8.64339 77.3183 8.64339H75.3782V11.5979H73.3457V2.98065H77.3799ZM75.3782 6.9815H76.9795C77.4107 6.9815 77.7494 6.88917 78.0266 6.73529C78.3037 6.58141 78.4269 6.27366 78.4269 5.78124C78.4269 5.35038 78.3037 5.04263 78.0574 4.88875C77.811 4.73487 77.4415 4.67332 76.9795 4.67332H75.3782V6.9815Z" fill="#231F20"/>
<path d="M85.8182 11.8748C84.2477 11.8748 83.1082 11.4132 82.4615 10.4591C81.784 9.53586 81.4761 8.48948 81.4761 7.32001C81.4761 7.22768 81.4761 7.16613 81.4761 7.0738C81.4761 6.98147 81.4761 6.91992 81.5069 6.8276C81.5685 5.812 81.938 4.85795 82.5847 4.027C83.2314 3.16528 84.3092 2.7652 85.849 2.7652C87.3888 2.7652 88.4974 3.19606 89.1441 4.05778C89.7908 4.9195 90.1296 5.87355 90.2219 6.88915C90.2219 6.9507 90.2219 7.04303 90.2219 7.10458C90.2219 7.16613 90.2219 7.25846 90.2219 7.32001C90.2219 7.38156 90.2219 7.47389 90.2219 7.53544C90.2219 7.59699 90.2219 7.68932 90.2219 7.75087C90.1603 8.76647 89.7908 9.72051 89.1441 10.5822C88.4666 11.4132 87.358 11.844 85.8182 11.8748ZM87.2348 9.65896C87.5427 9.32043 87.7275 8.95112 87.8507 8.52026C87.9123 8.30483 87.9431 8.05862 87.9739 7.84319C87.9739 7.62776 88.0047 7.44311 88.0047 7.28923C88.0047 7.13535 88.0047 6.9507 87.9739 6.73527C87.9431 6.51984 87.9123 6.30441 87.8815 6.08898C87.7891 5.65812 87.5735 5.28881 87.2656 4.95027C86.9576 4.61174 86.4957 4.42709 85.849 4.42709C85.0791 4.42709 84.5248 4.67329 84.2169 5.1657C83.9089 5.65812 83.7549 6.21208 83.6933 6.79682C83.6933 6.88915 83.6933 6.9507 83.6625 7.04302C83.6625 7.13535 83.6625 7.1969 83.6625 7.28923C83.6625 7.38156 83.6625 7.47389 83.6625 7.59699C83.6625 7.68932 83.6625 7.78164 83.6933 7.90475C83.7549 8.48949 83.9397 9.01267 84.2169 9.47431C84.5248 9.93594 85.0483 10.1821 85.8182 10.1821C86.4649 10.1821 86.9268 10.0283 87.2348 9.65896Z" fill="#231F20"/>
<path d="M97.9517 6.42753V7.9971H93.7327V9.93597H98.6292V11.5979H91.6694V2.98065H98.506V4.64254H93.7019V6.39676H97.9517V6.42753Z" fill="#231F20"/>
<path d="M55.6081 22.2155L55.5157 25.847H53.7296V23.9082H47.8785V25.847H46.0924L46 22.2155H46.8623C47.3242 21.5384 47.6629 20.8306 47.8477 20.0304C48.0325 19.2303 48.1249 18.307 48.1557 17.2606L48.1865 15.2602H54.4379V22.2155H55.6081ZM50.065 16.9221V17.9377C50.065 18.7994 49.9726 19.5688 49.8494 20.2459C49.7262 20.9229 49.4491 21.5692 49.0487 22.1847H52.3746V16.9221H50.065Z" fill="#231F20"/>
<path d="M58.7806 18.3993H60.9362C61.8601 18.3993 62.5376 18.584 62.9687 18.9225C63.3999 19.2918 63.7078 19.6611 63.831 20.092C63.8926 20.3074 63.9542 20.4921 63.985 20.6767C64.0158 20.8614 64.0158 21.046 64.0158 21.1999C64.0158 22.0924 63.7386 22.7695 63.2151 23.2311C62.6916 23.662 61.9217 23.8774 60.9054 23.8774H56.7173V15.2602H58.7498V18.3993H58.7806ZM58.7806 22.2155H60.5051C60.9362 22.2155 61.275 22.1232 61.4906 21.9693C61.7061 21.7847 61.8293 21.5384 61.8293 21.1691C61.8293 20.7383 61.7061 20.4613 61.429 20.3074C61.1518 20.1535 60.8439 20.092 60.4435 20.092H58.7806V22.2155ZM66.7258 15.2602V23.8774H64.6933V15.2602H66.7258Z" fill="#231F20"/>
<path d="M70.267 23.8774H67.7109L70.7597 19.3841L67.9881 15.2602H70.4209L72.0839 18.0916L73.7468 15.2602H76.1797L73.4081 19.3841L76.4568 23.8774H73.9008L72.1147 20.9229L70.267 23.8774Z" fill="#231F20"/>
<path d="M81.6293 15.2602L84.8628 23.8774H82.7072L82.1529 22.2463H79.0117L78.4574 23.8774H76.3018L79.5353 15.2602H81.6293ZM81.7217 20.7998L80.6131 17.5068L79.4737 20.7998H81.7217Z" fill="#231F20"/>
<path d="M87.7576 23.8774H85.7251V15.2602H87.7576V18.4916H90.8987V15.2602H92.9312V23.8774H90.8987V20.1843H87.7576V23.8774Z" fill="#231F20"/>
<path d="M100.323 15.2602H102.356V23.8774H100.323V18.2762L96.8743 23.9082H94.8418V15.291H96.8743V20.8614L100.323 15.2602Z" fill="#231F20"/>
<path d="M110.516 18.6763V20.2459H106.297V22.1848H111.194V23.8466H104.234V15.2294H111.07V16.8913H106.266V18.6455H110.516V18.6763Z" fill="#231F20"/>
<path d="M51.9127 27.5397H54.3147L50.8656 31.479L54.5303 36.1569H52.0358L48.9871 31.9406H48.9563V36.1569H46.9238V27.5397H48.9563V31.1712H48.9871L51.9127 27.5397Z" fill="#231F20"/>
<path d="M54.6235 34.495C54.6851 34.495 54.7467 34.495 54.8391 34.5258C54.9007 34.5258 54.9623 34.5258 55.0239 34.5258C55.7322 34.5258 56.1633 34.2488 56.3481 33.7256C56.5328 33.2024 56.6252 32.4946 56.656 31.6636L56.7176 27.5397H63.0922V36.1569H61.0597V29.2016H58.6269L58.5653 32.2176C58.5653 32.433 58.5345 32.71 58.5345 33.0178C58.5037 33.3255 58.4729 33.664 58.3806 33.9718C58.2266 34.5258 57.9494 35.049 57.5183 35.5106C57.0872 35.9722 56.3789 36.2184 55.4242 36.2184C55.301 36.2184 55.1779 36.2184 55.0547 36.1877C54.9315 36.1877 54.7775 36.1569 54.6543 36.1569V34.495H54.6235Z" fill="#231F20"/>
<path d="M69.8974 27.5397H72.1147L69.3123 34.4027C68.9427 35.2644 68.5424 35.8183 68.0805 36.003C67.6185 36.2184 67.1258 36.3108 66.6331 36.3108C66.4175 36.3108 66.2328 36.3108 66.048 36.28C65.8632 36.2492 65.7092 36.2184 65.5245 36.1877C65.4937 36.1877 65.4629 36.1569 65.4321 36.1569C65.4013 36.1569 65.3705 36.1569 65.3397 36.1569V34.495C65.4629 34.5258 65.5861 34.5565 65.74 34.5873C65.894 34.6181 66.048 34.6181 66.2328 34.6181C66.5099 34.6181 66.6947 34.5565 66.8487 34.4642C67.0026 34.3719 67.095 34.2488 67.1874 34.1257C67.2182 34.0641 67.249 34.0026 67.2798 33.941C67.3106 33.8795 67.3106 33.8179 67.3414 33.7872L64.1387 27.5397H66.5715L68.45 31.756L69.8974 27.5397Z" fill="#231F20"/>
<path d="M75.0085 30.8019H77.1026C78.1189 30.8019 78.8579 30.9865 79.3199 31.3866C79.751 31.7559 80.059 32.1868 80.1821 32.6484C80.2437 32.8023 80.2745 32.987 80.2745 33.1408C80.2745 33.2947 80.3053 33.4486 80.3053 33.6025C80.3053 33.7563 80.3053 33.9102 80.2745 34.0949C80.2437 34.2795 80.1821 34.4642 80.1206 34.6488C79.9666 35.0489 79.6586 35.3875 79.2275 35.726C78.7656 36.0338 78.0881 36.2184 77.1334 36.2184H73.0068V27.6012H79.7202V29.2631H75.0393V30.8019H75.0085ZM75.0085 34.5873H76.6715C77.1026 34.5873 77.4722 34.5257 77.7493 34.3719C78.0573 34.218 78.1804 33.941 78.1804 33.5101C78.1804 33.1716 78.0881 32.8946 77.9341 32.7407C77.7493 32.5869 77.5645 32.4945 77.3798 32.433C77.2566 32.4022 77.1334 32.3714 77.0102 32.3714C76.887 32.3714 76.7947 32.3714 76.7331 32.3714H75.0393V34.5873H75.0085Z" fill="#231F20"/>
<path d="M94.6267 34.495L94.5343 38.1265H92.7482V36.1877H86.8971V38.1265H85.1109L85.0186 34.495H85.8808C86.3427 33.8179 86.6815 33.1101 86.8663 32.3099C87.051 31.5097 87.1434 30.5865 87.1742 29.5401L87.205 27.5397H93.4565V34.495H94.6267ZM89.0835 29.2016V30.2172C89.0835 31.0789 88.9911 31.8483 88.868 32.5253C88.7448 33.2024 88.4676 33.8487 88.0673 34.4642H91.3932V29.1708H89.0835V29.2016Z" fill="#231F20"/>
<path d="M99.7988 27.5397C101.031 27.5397 101.862 27.8167 102.293 28.3706C102.724 28.9246 102.971 29.5709 102.971 30.3095C102.971 31.1712 102.786 31.8175 102.386 32.2176C102.016 32.6177 101.585 32.8947 101.123 33.0178C100.877 33.1101 100.63 33.1409 100.384 33.1716C100.138 33.2024 99.922 33.2024 99.7372 33.2024H97.7971V36.1569H95.7646V27.5397H99.7988ZM97.7971 31.5097H99.3985C99.8296 31.5097 100.168 31.4174 100.446 31.2635C100.723 31.1097 100.846 30.8019 100.846 30.3095C100.846 29.8786 100.723 29.5709 100.476 29.417C100.23 29.2631 99.8604 29.2016 99.3985 29.2016H97.7971V31.5097Z" fill="#231F20"/>
<path d="M109.223 27.5397H111.44L108.637 34.4027C108.268 35.2644 107.868 35.8183 107.406 36.003C106.944 36.2184 106.451 36.3108 105.958 36.3108C105.743 36.3108 105.558 36.3108 105.373 36.28C105.188 36.2492 105.034 36.2184 104.85 36.1877C104.819 36.1877 104.788 36.1569 104.757 36.1569C104.726 36.1569 104.696 36.1569 104.665 36.1569V34.495C104.788 34.5258 104.911 34.5565 105.065 34.5873C105.219 34.6181 105.373 34.6181 105.558 34.6181C105.835 34.6181 106.02 34.5565 106.174 34.4642C106.328 34.3719 106.42 34.2488 106.513 34.1257C106.543 34.0641 106.574 34.0026 106.605 33.941C106.636 33.8795 106.636 33.8179 106.667 33.7872L103.464 27.5397H105.897L107.775 31.756L109.223 27.5397Z" fill="#231F20"/>
<path d="M113.781 33.2025C113.781 33.7257 113.935 34.095 114.181 34.3104C114.427 34.5258 114.735 34.6797 115.012 34.7413C115.166 34.772 115.29 34.8028 115.413 34.8028C115.536 34.8028 115.659 34.8028 115.782 34.8028C116.337 34.8028 116.737 34.7105 116.983 34.5258C117.23 34.3412 117.384 34.1565 117.445 33.9411C117.476 33.8795 117.476 33.818 117.507 33.7564C117.538 33.6949 117.507 33.6333 117.507 33.5718C117.507 33.2332 117.414 33.0178 117.23 32.8639C117.045 32.7101 116.86 32.6177 116.644 32.587C116.521 32.5562 116.429 32.5562 116.337 32.5254C116.244 32.5254 116.152 32.5254 116.059 32.5254H114.828V30.9558H115.844C115.936 30.9558 116.029 30.9558 116.121 30.9558C116.244 30.9558 116.337 30.9251 116.46 30.8943C116.675 30.8327 116.86 30.7712 117.014 30.6173C117.168 30.4942 117.26 30.2788 117.26 29.971C117.26 29.6017 117.106 29.3247 116.829 29.1708C116.552 29.017 116.213 28.9246 115.844 28.8939C115.782 28.8939 115.751 28.8939 115.721 28.8939C115.69 28.8939 115.628 28.8939 115.597 28.8939C115.505 28.8939 115.413 28.8939 115.29 28.8939C115.166 28.8939 115.074 28.9246 114.951 28.9554C114.735 29.017 114.52 29.1708 114.335 29.3555C114.15 29.5401 114.027 29.8787 114.027 30.3095H112.025C112.087 29.2632 112.426 28.5245 113.011 28.0321C113.627 27.5397 114.55 27.2935 115.813 27.2935C116.983 27.2935 117.846 27.4782 118.338 27.8167C118.831 28.1552 119.17 28.5245 119.324 28.9246C119.354 29.0477 119.385 29.2016 119.416 29.3247C119.447 29.4478 119.447 29.5709 119.447 29.694C119.447 29.8171 119.447 29.9402 119.416 30.0941C119.385 30.248 119.354 30.4019 119.262 30.5865C119.17 30.802 119.016 30.9866 118.769 31.1713C118.523 31.3559 118.215 31.5098 117.815 31.6021V31.6329C118.492 31.756 118.985 32.0022 119.262 32.4023C119.539 32.7716 119.693 33.264 119.693 33.818C119.693 34.5874 119.447 35.1721 118.985 35.5107C118.523 35.8492 117.969 36.0954 117.414 36.1877C117.106 36.2493 116.798 36.3108 116.491 36.3108C116.183 36.3416 115.936 36.3416 115.721 36.3416C115.505 36.3416 115.259 36.3416 114.982 36.3108C114.704 36.28 114.427 36.2493 114.15 36.1877C113.565 36.0646 113.041 35.7569 112.549 35.326C112.056 34.8951 111.81 34.1565 111.748 33.1409H113.781V33.2025Z" fill="#231F20"/>
<path d="M127.546 30.9557V32.5253H123.327V34.4642H128.254V36.1261H121.294V27.5089H128.131V29.1707H123.327V30.925H127.546V30.9557Z" fill="#231F20"/>
<path d="M134.967 27.5397H137V36.1569H134.967V30.5249L131.518 36.1569H129.486V27.5397H131.518V33.1101L134.967 27.5397ZM132.196 25.4162C132.196 25.6624 132.257 25.847 132.381 25.9393C132.504 26.0624 132.658 26.124 132.812 26.1855C132.904 26.2163 132.966 26.2163 133.027 26.2471C133.089 26.2471 133.181 26.2471 133.243 26.2471C133.304 26.2471 133.366 26.2471 133.458 26.2471C133.52 26.2471 133.612 26.2163 133.674 26.1855C133.828 26.1548 133.982 26.0624 134.105 25.9393C134.228 25.8162 134.321 25.6316 134.321 25.4162H135.706C135.706 25.5085 135.676 25.6008 135.645 25.7239C135.614 25.847 135.553 25.9701 135.491 26.0624C135.337 26.3394 135.121 26.5549 134.783 26.7703C134.444 26.9857 133.92 27.078 133.243 27.078C132.411 27.078 131.826 26.9242 131.426 26.5856C131.026 26.2471 130.841 25.9086 130.81 25.5085C130.81 25.4777 130.81 25.4777 130.81 25.4469C130.81 25.4162 130.81 25.4162 130.81 25.3854H132.196V25.4162Z" fill="#231F20"/>
<path d="M3.36756 30.8828C3.50595 30.8828 3.50595 30.8828 3.52902 30.7209C3.45982 30.7672 3.41369 30.8134 3.36756 30.8828ZM6.38914 5.0893C6.36607 5.06617 6.36607 5.06617 6.34301 5.04304C6.29687 5.0893 6.25074 5.11244 6.20461 5.1587C6.20461 5.1587 6.20461 5.20497 6.22768 5.27437C6.29687 5.18184 6.34301 5.13557 6.38914 5.0893ZM11.4635 24.9839C11.4866 25.007 11.4866 25.0301 11.5097 25.0533C11.5789 25.007 11.6481 24.9607 11.7173 24.9376C11.6942 24.9145 11.6942 24.8913 11.6711 24.8682C11.6019 24.8913 11.5327 24.9376 11.4635 24.9839ZM5.67411 27.783C5.53571 27.7367 5.46652 27.7598 5.46652 27.968C5.58184 27.8986 5.62798 27.8524 5.67411 27.783ZM3.55208 9.34581C3.41369 9.41521 3.45982 9.53088 3.48289 9.64654C3.50595 9.53088 3.52902 9.43835 3.55208 9.34581ZM0.553571 32.0395C0.761161 32.1089 0.738095 31.9932 0.738095 31.8776C0.738095 31.8776 0.71503 31.8544 0.668899 31.8544C0.622768 31.9007 0.599702 31.9469 0.553571 32.0395ZM19.0982 33.3118C18.9598 33.1961 18.8445 33.2193 18.7753 33.3812C18.8906 33.3581 19.006 33.3349 19.0982 33.3118ZM25.372 35.8796C25.349 35.8565 25.3259 35.8565 25.3028 35.8333C25.2567 35.9259 25.1875 36.0415 25.1414 36.1341C25.1644 36.1341 25.1644 36.1572 25.1875 36.1572C25.2567 36.0647 25.3028 35.9721 25.372 35.8796ZM9.47991 4.37217C9.47991 4.39531 9.50298 4.41844 9.50298 4.46471C9.6183 4.44157 9.73363 4.41844 9.84896 4.39531C9.84896 4.37217 9.84896 4.34904 9.82589 4.32591C9.71056 4.32591 9.59524 4.34904 9.47991 4.37217ZM5.76637 28.1994C5.78943 28.2225 5.78943 28.2456 5.8125 28.2456C6.06622 28.0837 6.06622 28.0837 6.13542 27.9218C5.99702 28.0374 5.8817 28.13 5.76637 28.1994ZM7.0119 26.8576C7.0119 26.8808 7.03497 26.9039 7.03497 26.9039C7.24256 26.8576 7.24256 26.8576 7.35789 26.6957C7.21949 26.742 7.10417 26.8114 7.0119 26.8576ZM9.91815 25.8861C10.218 25.8861 10.218 25.8861 10.2411 25.701C10.1257 25.7704 10.0104 25.8167 9.91815 25.8861ZM16.215 33.2424C16.0074 33.1036 16.0074 33.1036 15.9152 33.2887C15.9382 33.2887 15.9613 33.3118 15.9613 33.3118C16.0536 33.2887 16.1228 33.2655 16.215 33.2424ZM5.30506 28.0837C5.28199 28.0606 5.28199 28.0374 5.25893 28.0143C5.12054 28.0606 5.00521 28.13 4.84375 28.1762C4.91295 28.2456 4.95908 28.2688 5.00521 28.3382C5.12053 28.2456 5.2128 28.1531 5.30506 28.0837ZM10.6332 23.8503C10.3795 23.7809 10.3103 23.9891 10.1719 24.1048C10.3564 24.0817 10.5409 24.0817 10.6332 23.8503ZM6.87351 26.4412C6.52753 26.4412 6.4814 26.4644 6.38914 26.6957C6.59673 26.7188 6.73512 26.6032 6.87351 26.4412ZM6.87351 24.7294C6.57366 24.7757 6.04315 25.0533 5.8125 25.2846C6.25074 25.2615 6.50446 24.9376 6.87351 24.7294ZM11.625 24.3593C11.7865 24.3593 11.9018 24.2667 12.0171 24.1973C12.1324 24.1048 12.2708 24.0585 12.4092 23.9891C12.5246 23.9429 12.6629 23.8966 12.7091 23.7347C12.3631 23.8503 11.8787 24.1279 11.625 24.3593ZM6.25074 25.4697C6.25074 25.4928 6.27381 25.5159 6.27381 25.5391C6.31994 25.5391 6.36607 25.5622 6.38914 25.5391C6.73512 25.3309 7.0811 25.1458 7.42708 24.9376C7.05804 24.9145 6.85045 25.2383 6.50446 25.2846C6.4122 25.3077 6.34301 25.4003 6.25074 25.4697ZM12.8013 3.93264C12.5015 3.81698 11.5097 3.84011 11.256 3.95578C11.7865 4.00204 12.2939 3.97891 12.8013 3.93264ZM3.85193 8.83688C4.01339 8.46675 4.15178 8.09662 4.17485 7.63396C3.92113 7.98095 3.78274 8.48988 3.85193 8.83688ZM14.2775 22.2541C14.3006 22.2773 14.3006 22.3004 14.3237 22.3004C14.5082 22.2079 14.6927 22.1153 14.8542 21.9997C15.0387 21.9071 15.2001 21.7915 15.4308 21.6295C15.0848 21.5601 14.9003 21.7915 14.6696 21.8609C14.5082 21.9534 14.3929 22.0922 14.2775 22.2541ZM8.18824 26.8808C7.61161 27.1121 7.05804 27.3897 6.55059 27.7598C7.10417 27.5748 7.61161 27.2972 8.11905 26.9964C8.14211 26.9502 8.16518 26.9039 8.18824 26.8808ZM4.77455 6.43103C5.00521 6.5467 5.05134 6.3385 5.16667 6.29223C5.18973 6.29223 5.16667 6.1997 5.16667 6.15343C5.23586 6.1303 5.32812 6.10716 5.39732 6.0609C5.65104 5.82957 5.8817 5.59823 6.13542 5.3669C6.06622 5.32064 6.02009 5.27437 5.92783 5.34377C5.67411 5.5751 5.39732 5.7833 5.1436 5.9915C5.05134 6.1303 4.93601 6.2691 4.77455 6.43103ZM13.8393 23.7578C13.8393 23.7347 13.8162 23.7115 13.8162 23.6884C13.5625 23.8041 13.3088 23.9197 13.0551 24.0585C12.6629 24.2899 12.2708 24.5443 11.8787 24.7988V24.8219C11.8787 24.8219 11.9018 24.8451 11.9249 24.8451C12.1094 24.7525 12.317 24.6831 12.4784 24.5443C12.686 24.3824 12.9167 24.2667 13.1473 24.1742C13.401 24.1048 13.6317 23.966 13.8393 23.7578ZM12.8936 33.0573C12.8936 33.0805 12.8936 33.1036 12.8705 33.1267C12.9859 33.173 13.1012 33.2887 13.2165 33.2887C13.5164 33.2424 13.7932 33.3349 14.0699 33.3349C14.2083 33.3349 14.3698 33.3349 14.5082 33.3349C14.7158 33.3349 14.9234 33.3581 15.154 33.3581C15.131 33.173 15.0618 33.1036 14.9234 33.1036C14.7619 33.1267 14.5774 33.1036 14.4159 33.1267C14.3237 33.1267 14.2314 33.1499 14.1391 33.1499C13.7932 33.1267 13.4702 33.0805 13.1243 33.0573C13.0551 33.0573 12.9628 33.0573 12.8936 33.0573ZM27.2865 33.9364C27.1481 33.9364 27.0558 33.9364 27.0097 33.9595C26.779 34.0983 26.5253 34.1909 26.3638 34.4453C26.3408 34.4916 26.2946 34.5379 26.2485 34.5841C26.064 34.7461 25.9948 34.908 26.0409 35.1856C26.41 34.7461 26.9635 34.5379 27.2865 33.9364ZM17.5759 33.3812C17.7374 33.3812 17.8757 33.3812 18.0141 33.4043C18.1525 33.4275 17.1607 33.3812 17.2991 33.4043C17.5759 33.4043 17.8527 33.4043 18.1295 33.4043C18.2448 33.4043 17.6682 33.3581 17.7835 33.3118C17.8296 33.3118 17.8527 33.2193 17.8757 33.173C17.8296 33.1499 17.7835 33.1036 17.7374 33.1036C17.5298 33.0805 18.0141 33.0805 17.8065 33.2193C17.7835 33.2424 17.7143 33.2193 17.6682 33.1961C17.276 33.0111 18.0141 33.2193 17.622 33.2655C17.622 33.2655 17.599 33.3349 17.5759 33.3812ZM26.2946 35.9027C26.756 35.4169 27.2403 35.0237 27.6094 34.5147C27.6786 34.3991 27.6324 34.3528 27.6094 34.2834C27.4249 34.2371 27.2865 34.2371 27.1942 34.4222C27.1481 34.4916 27.0558 34.561 26.9635 34.6073C26.6406 34.8155 26.3869 35.1162 26.1562 35.4169C26.2024 35.5789 26.2254 35.7177 26.2946 35.9027ZM14.5774 5.6445C14.5543 5.82957 14.4851 5.89897 14.3467 5.9221C14.0699 5.94523 13.8162 5.9915 13.5394 6.01463C13.4702 6.01463 13.401 6.01463 13.378 6.0609C13.2626 6.2691 13.0551 6.24596 12.8705 6.22283C12.1094 6.1303 11.279 6.2691 9.84896 7.17129C9.82589 7.17129 9.82589 7.21756 9.82589 7.24069C9.80283 7.37949 9.36458 7.56456 9.27232 7.65709C9.0878 7.79589 8.07292 8.81375 7.93452 9.29955C7.8192 9.76221 7.35789 12.3069 7.77307 13.3941C8.02678 14.0419 9.22619 15.985 9.59524 16.332C10.7716 17.373 11.3251 17.373 11.4866 17.5118C11.5327 17.5581 11.6019 17.5581 11.6711 17.535C12.0863 17.4424 12.686 17.8126 13.0551 17.5812C13.1012 17.535 15.2463 17.9051 16.3996 17.3962C17.1376 17.0723 17.968 16.4014 18.683 16.0544C18.8906 15.9619 19.0521 15.7537 19.2135 15.5686C19.3519 15.4067 19.4211 15.2216 19.5595 15.0597C19.8363 14.6664 20.3668 14.3426 20.436 13.8337C20.4591 13.5792 20.5513 13.3479 20.6667 13.1165C20.7589 12.9546 20.8512 11.3815 20.8051 11.2427C20.6897 10.8726 19.8824 9.02195 19.6057 8.48988C18.8676 7.14816 16.6071 5.76017 14.5774 5.6445ZM16.4918 20.1721C16.4457 20.2647 16.3996 20.3341 16.3534 20.4497C16.7225 20.4729 16.8839 20.2184 17.0915 20.0102C16.9762 20.0102 16.8839 20.0102 16.7686 20.0334C16.6994 20.0565 16.6533 20.0796 16.5841 20.1028C16.5841 20.0565 16.6302 19.9408 16.6071 19.9408C16.5379 19.8946 16.4457 19.8714 16.3534 19.8483C16.4226 19.7095 16.6533 19.7326 16.6533 19.5244C16.4457 19.455 16.1228 19.7095 15.9844 19.8252C15.869 19.802 15.3155 20.7505 14.7619 21.0975C14.5312 21.2363 14.2775 21.4213 14.2775 21.4445C14.1622 21.6064 14.3467 21.8146 14.1622 21.8146C14.3698 21.8146 15.6845 21.0049 16.3534 20.5423C16.1689 20.5191 16.0305 20.5191 15.9152 20.496C16.0997 20.3341 16.2381 20.149 16.4918 20.1721ZM4.08259 28.8702C4.03646 28.8934 3.96726 28.8934 3.92113 28.9396C3.64435 29.2172 3.39062 29.4948 3.1369 29.7956C2.95238 30.0038 2.81399 30.2351 2.6064 30.4433C2.49107 30.559 2.39881 30.6978 2.35268 30.8366C2.44494 30.9291 2.5372 30.9522 2.6064 30.8597C2.79092 30.559 3.15997 30.397 3.25223 30.0269C3.25223 29.9806 3.32143 29.9806 3.36756 29.9344C3.41369 29.9112 3.45982 29.865 3.45982 29.8418C3.43676 29.6105 3.64434 29.518 3.75967 29.3792C3.89807 29.2404 4.10565 29.1247 4.08259 28.8702C4.19792 28.8471 4.31324 28.8008 4.33631 28.6389C4.17485 28.662 4.12872 28.7546 4.08259 28.8702ZM5.42039 27.274C5.65104 27.2278 5.8125 27.1121 5.92783 26.9039C5.7433 26.9733 5.53571 27.0427 5.42039 27.2509C5.39732 27.274 5.42039 27.274 5.42039 27.274C5.25893 27.2509 5.18973 27.3666 5.0744 27.4591C5.25893 27.5285 5.30506 27.3434 5.42039 27.274ZM29.5699 32.0395C29.5007 32.1551 29.5007 32.1551 29.6161 32.3171C29.5699 32.4096 29.5238 32.5021 29.5007 32.5947C29.5007 32.6178 29.5238 32.6409 29.5469 32.6641C29.8006 32.5021 29.939 32.1783 30.285 32.3402C30.4464 32.4096 30.654 32.4096 30.7001 32.6409C30.7924 32.5947 30.8847 32.8029 31 32.7566C30.9769 33.0342 30.8847 32.9879 30.8155 33.1267C30.5848 33.52 29.1086 35.1625 28.8318 35.4863C28.532 35.8333 28.186 36.1572 27.9323 36.5736C27.7478 36.8743 27.3095 36.8975 27.1019 37.1982C27.0097 37.337 26.9174 37.4527 26.8482 37.5914C26.5253 38.0772 26.064 38.4242 25.6257 38.8175C25.349 39.072 25.0722 39.3033 24.7723 39.5346C24.5417 39.7197 23.8036 40.3212 23.5499 40.5062C23.596 40.5525 23.6421 40.5988 23.6652 40.645C23.4345 41.0614 23.1808 41.0614 22.8118 40.8995C22.7656 40.8764 22.1659 40.8532 21.7046 40.6913C21.2894 40.5525 21.0126 40.2749 20.5283 40.113C19.721 39.8354 18.6138 39.257 18.7522 39.0026C18.8445 38.8406 18.9368 38.6787 19.029 38.5168C19.0751 38.4242 19.0982 38.3086 19.1213 38.1929C19.2135 38.1466 19.3058 38.1235 19.3981 38.0541C19.6057 37.8922 19.7902 37.7071 19.9978 37.5452C20.1362 37.4295 20.9665 36.4117 21.3817 35.949C21.4048 35.9259 21.4048 35.8565 21.4048 35.8102C20.9435 35.8102 13.7932 36.0647 13.3549 36.0647C8.64955 36.1572 6.18155 36.8049 1.68378 36.5967C1.59152 36.5967 1.49926 36.5505 1.3378 36.5042C1.47619 36.3885 1.56845 36.296 1.66071 36.2035C1.70685 36.0415 1.45312 35.8565 1.68378 35.6945C1.61458 35.6251 1.56845 35.5789 1.47619 35.5095C1.56845 35.4401 1.63765 35.3938 1.72991 35.3475C1.61458 35.2087 1.52232 34.6073 1.43006 34.5147C1.52232 34.3528 1.61458 34.2371 1.68378 34.1446C1.47619 33.8439 1.45312 33.8439 1.17634 34.0289C1.15327 34.0521 1.13021 34.0521 1.10714 34.0521C1.08408 34.0521 1.08408 34.0289 1.06101 34.0289C1.15327 33.7745 1.22247 33.5431 1.3378 33.2424C1.1994 33.2887 1.13021 33.3349 1.03795 33.3581C1.03795 33.2655 1.06101 33.2193 1.06101 33.1036C0.738095 33.1961 0.830357 33.5431 0.645833 33.7051C0.576637 33.6588 0.50744 33.6125 0.438244 33.5431C0.438244 33.52 0.461309 33.52 0.461309 33.4969C0.50744 33.4969 0.553571 33.52 0.645833 33.52C0.691964 33.3581 0.738095 33.2193 0.807292 33.0111C0.691964 33.0573 0.622768 33.0805 0.576637 33.1036C0.576637 33.1036 0.553571 33.1036 0.553571 33.0805C0.530506 32.9185 0.484375 32.7797 0.299851 32.7335C0.161458 32.6872 0.046131 32.6178 0.0691964 32.4327C0.0691964 32.3633 0.0230655 32.2939 0 32.2245C0.0691964 32.1783 0.115327 32.1089 0.184524 32.0857C0.299851 32.0163 0.369048 31.9238 0.415179 31.785C0.461309 31.6462 0.50744 31.5306 0.668899 31.4612C0.668899 31.7388 0.461309 31.9932 0.553571 32.3402C0.622768 32.2245 0.668899 32.1552 0.71503 32.0626C0.738095 32.1552 0.761161 32.2014 0.761161 32.2477C0.784226 32.2477 0.784226 32.2245 0.807292 32.2245C0.853423 32.1089 0.899553 32.0163 0.922619 31.9007C0.922619 31.8775 0.945684 31.8081 0.922619 31.785C0.853423 31.7156 0.784226 31.6231 0.876488 31.5306C0.991815 31.3918 1.03795 31.2067 1.2686 31.2298C1.61458 31.253 1.96057 31.253 2.32961 31.253C2.42188 31.091 2.51414 30.9291 2.6064 30.7672C2.65253 30.6978 2.6756 30.6515 2.74479 30.6052C3.02158 30.3739 3.25223 30.1194 3.43676 29.7956C3.55208 29.6105 3.71354 29.4948 3.85193 29.3329C3.9442 29.2404 3.9442 29.2404 3.96726 29.0784C3.78274 29.1016 3.78274 29.3792 3.55208 29.356C3.64435 29.0784 3.82887 28.8702 4.01339 28.662C4.10565 28.5464 4.19792 28.4076 4.38244 28.3613C4.56696 28.315 4.68229 28.13 4.84375 27.9912C5.05134 27.8061 5.28199 27.621 5.48958 27.436C5.62798 27.3203 5.7433 27.2046 5.8817 27.1121C6.11235 26.9502 6.34301 26.7651 6.57366 26.6032C6.66592 26.5338 6.75818 26.4412 6.87351 26.3256C6.78125 26.3025 6.73512 26.2793 6.64286 26.2562C6.78125 26.1868 6.87351 26.1405 6.98884 26.0943C6.78125 26.048 6.59673 26.1868 6.43527 26.2793C6.34301 26.233 6.27381 26.1868 6.20461 26.1174C6.25074 26.0711 6.27381 26.0017 6.31994 25.9555C6.27381 25.9323 6.22768 25.9092 6.22768 25.9323C6.06622 26.0249 5.90476 26.1405 5.7433 26.233C5.39732 26.4412 5.02827 26.6263 4.68229 26.8345C4.5439 26.9039 4.42857 26.9964 4.31324 27.089C4.19792 27.1815 4.08259 27.2509 3.89807 27.1584C3.96726 27.0196 4.01339 26.8808 4.12872 26.7651C4.38244 26.4875 4.65923 26.233 4.91295 26.0017C5.00521 25.9092 5.1436 25.8398 5.25893 25.7704C5.60491 25.6085 5.92783 25.4234 6.18155 25.1227C6.27381 25.0301 6.4122 24.9839 6.52753 24.8913C6.71205 24.7525 6.89658 24.5906 7.0811 24.4287C7.12723 24.3824 7.19643 24.3361 7.24256 24.3361C7.58854 24.2667 7.88839 24.1511 8.16518 23.9197C8.16518 23.8503 8.11905 23.7809 8.14211 23.7578C8.18824 23.6653 8.23437 23.7809 8.28051 23.7809C8.32664 23.7809 8.37277 23.7578 8.4189 23.7347C8.71875 23.5727 9.0186 23.4108 9.29539 23.2489C9.22619 23.3414 9.0878 23.4108 9.18006 23.5959C9.27232 23.5496 9.36458 23.5033 9.52604 23.4339C9.43378 23.3414 9.36458 23.2951 9.29539 23.2489C9.47991 23.1332 9.47991 23.1332 9.59524 23.3183C9.89509 23.2257 10.218 23.1332 10.564 23.0407C10.3795 23.1795 10.218 23.3183 10.0565 23.4571C10.1257 23.5496 10.3333 23.5496 10.218 23.7809C10.3564 23.7347 10.4487 23.7115 10.564 23.6653C10.6332 23.7115 10.7485 23.7347 10.7716 23.8041C10.8408 23.9429 10.91 23.9429 11.0253 23.8735C11.3251 23.6884 11.625 23.5033 11.9479 23.2951C11.9249 23.2257 11.9018 23.1795 11.8787 23.1101C11.971 23.1332 12.0402 23.1332 12.1324 23.1563C12.0863 23.0175 12.0171 22.9481 11.9018 22.9944C11.7865 23.0407 11.6942 23.0638 11.6019 23.1101C11.4635 23.2026 11.3482 23.1795 11.1868 23.0638C11.3021 23.0175 11.3943 22.9481 11.4866 22.925C11.6942 22.8325 11.7173 22.7862 11.7173 22.5317C11.4174 22.6705 11.1176 22.578 10.8177 22.5549C10.5871 22.5549 10.1488 22.578 9.82589 22.5317C4.88988 21.6989 3.55208 18.5991 3.29836 18.3446C3.22917 18.2752 3.1369 18.2058 3.2061 18.067C3.22917 18.0208 3.15997 17.9282 3.11384 17.8588C2.81399 17.4656 2.49107 17.0723 2.19122 16.679C2.12202 16.5865 2.09896 16.4477 2.05283 16.332C2.07589 16.332 2.09896 16.3089 2.12202 16.3089C2.35268 16.6096 2.58333 16.8872 2.81399 17.188H2.86012C2.83705 17.0954 2.83705 17.026 2.81399 16.9335C2.74479 16.679 2.81399 16.4014 2.65253 16.1701C2.6064 16.0776 2.6756 15.9388 2.69866 15.7768C2.76786 15.8231 2.83705 15.8694 2.95238 15.9388C2.86012 15.4298 2.58333 15.0134 2.51414 14.5276C2.62946 14.5508 2.74479 14.5508 2.79092 14.7127C2.86012 14.9209 2.95238 15.1291 3.04464 15.3142C3.09077 15.4298 3.18304 15.5224 3.29836 15.6149C3.2753 15.5224 3.25223 15.453 3.2061 15.3604C3.02158 15.0597 2.92932 14.7358 2.92932 14.3889C2.92932 14.2038 2.86012 14.0419 2.83705 13.8568C2.74479 13.4404 2.56027 12.7695 2.58333 12.33C2.58333 12.0293 2.95238 10.3637 2.95238 10.0629C2.95238 9.85474 2.92932 9.62341 2.92932 9.41521C2.92932 9.32268 2.95238 9.20701 2.95238 9.11448C2.49107 8.86002 2.49107 8.42049 2.46801 7.95782C2.37574 8.16602 2.28348 8.35109 2.21429 8.55928C2.19122 8.55928 2.16815 8.55928 2.14509 8.53615C2.09896 8.30482 2.23735 8.05035 2.14509 7.81902C1.98363 7.98095 1.98363 7.98095 1.79911 8.44362C1.77604 8.39735 1.72991 8.37422 1.72991 8.35108C1.47619 5.52883 5.02827 3.23865 5.46652 2.86852C7.49628 1.20293 11.4635 1.08726 12.1786 1.06413C12.4784 1.06413 12.2708 1.64246 12.34 1.89692C12.6629 2.15139 12.7321 2.59092 12.9859 2.91478C12.2478 3.05358 11.5097 2.89165 10.8408 3.09985C10.1719 3.30805 10.1257 3.30805 9.45684 3.58565C9.45684 3.60878 9.45684 3.65505 9.47991 3.67818C9.57217 3.67818 9.66443 3.65505 9.77976 3.65505C9.89509 3.63191 9.31845 3.65505 9.41071 3.58565C9.6183 3.46998 9.82589 3.46998 10.0335 3.42371C10.2641 3.37745 10.4948 3.33118 10.7485 3.40058C10.8638 3.42371 10.9792 3.37745 11.0945 3.35431C11.4866 3.33118 11.8557 3.30805 12.2247 3.19238C12.34 3.14612 12.4092 3.16925 12.5015 3.28491C12.3862 3.33118 12.317 3.35431 12.2247 3.37745C12.2247 3.40058 12.2247 3.42371 12.2247 3.42371C12.4554 3.40058 12.686 3.37745 12.9167 3.35431C13.0551 3.33118 13.1704 3.30805 13.2165 3.51625C13.032 3.51625 12.8475 3.53938 12.6168 3.53938C12.8244 3.77071 13.0781 3.63191 13.2626 3.74758C13.1012 4.04831 12.8013 3.95578 12.5246 4.07144C12.5707 4.09458 12.5937 4.14084 12.6168 4.14084C12.9167 4.09458 13.2396 4.02518 13.5394 3.95578C13.5394 3.86324 13.5394 3.81698 13.5164 3.77071C13.401 3.53938 13.3549 3.28491 13.3549 3.03045C13.3549 2.93792 13.3088 2.86852 13.2626 2.77598C13.2165 2.66032 13.1704 2.52152 13.1012 2.38272C13.2396 2.33645 13.3549 2.31332 13.4241 2.31332C13.4702 2.17452 13.5164 2.05885 13.5856 1.89692C13.401 1.85066 13.2626 1.61932 13.032 1.68872C12.9167 1.54992 12.8013 1.45739 12.686 1.34173C12.7783 1.24919 12.8936 1.17979 12.9628 1.06413C13.0089 0.971594 13.0089 0.855928 13.0551 0.693996C12.8705 0.64773 12.6629 0.601463 12.4554 0.555197C12.4554 0.532064 12.4784 0.462664 12.4784 0.416398C12.4323 0.393264 12.3862 0.370131 12.317 0.323865C12.3631 0.300732 12.3862 0.277598 12.4092 0.277598C12.5707 0.300732 12.7321 0.346998 12.9397 0.370131C12.9167 0.231332 12.9167 0.138799 12.8936 0C13.0781 0.0462664 13.2396 0.0925328 13.401 0.161932C13.8162 0.323865 18.314 0.0693995 20.3207 1.75812C22.0506 3.21551 25.6488 5.9915 26.0409 10.942C26.064 11.1965 26.6176 17.3268 22.0045 20.4266C21.7046 20.6348 17.9911 24.3361 16.4457 25.2615C14.9234 26.1636 8.3497 30.5127 7.75 31.1836C8.07292 31.1373 12.4092 30.8597 12.8013 30.8366C13.0551 30.8366 19.7902 30.5127 19.9978 30.4896C20.0439 30.4896 20.1131 30.4664 20.1592 30.4433C20.1592 30.2814 20.0208 30.212 19.9516 30.1194C19.6057 29.7724 18.8676 29.1016 18.4985 28.7314C18.5908 28.6389 18.66 28.5695 18.7292 28.5001C18.7753 28.4538 18.8214 28.3844 18.8676 28.315C18.9368 28.1994 18.9829 28.1068 19.1443 28.1994C19.1674 28.2225 19.2135 28.1994 19.2827 28.2225C19.2597 28.13 19.2597 28.0374 19.2366 27.9449C19.2597 27.9449 19.2597 27.9218 19.2827 27.9218C19.4211 28.0374 19.5365 28.1531 19.6979 28.2919C19.744 28.13 19.7671 28.0143 19.8132 27.8755C19.744 27.8061 19.6749 27.7367 19.5826 27.6673C19.744 27.4822 19.9055 27.2972 20.09 27.1121C20.1362 27.0658 20.2284 27.0658 20.2976 27.0658C20.3668 27.0658 20.436 27.089 20.5283 27.1121V26.7188C20.436 26.742 20.3899 26.742 20.3207 26.7651C20.3207 26.742 20.3207 26.7188 20.3207 26.7188C20.4821 26.58 20.5283 26.3718 20.5744 26.1636C20.6205 26.0017 20.6897 25.8861 20.8051 25.7935C20.9435 25.701 21.0588 25.5622 21.2202 25.4465C21.1972 25.4003 21.1741 25.3309 21.128 25.2615C21.1741 25.2152 21.2202 25.1458 21.2894 25.0995C21.4278 25.1689 21.5662 25.2152 21.7046 25.2846C21.9583 25.4465 22.2121 25.6085 22.4427 25.7935C22.6503 25.9555 23.1808 26.4875 23.3653 26.6726C23.7113 27.0196 24.4955 27.3666 24.8415 27.7136C25.4182 28.2688 26.0179 28.8471 26.5945 29.3792C27.0097 29.7493 27.0327 29.8187 27.4479 30.1888C27.6324 30.3276 27.7939 30.4896 27.9784 30.6284C28.1399 30.7672 28.1399 31.1373 27.9784 31.2761C27.8631 31.3686 27.7478 31.4843 27.6324 31.5537C27.3787 31.6925 27.1942 31.9007 27.1481 32.2014C26.9174 32.2477 26.6637 32.2477 26.5945 32.5253C26.5945 32.5484 26.4792 32.6641 26.4561 32.6872C26.2946 32.826 26.7098 32.9879 26.4561 33.2424C26.3177 33.3812 26.2024 33.5431 26.0179 33.7282C26.1101 33.7513 26.1793 33.7745 26.2254 33.7976C26.2024 33.8901 26.2024 33.9133 26.1793 33.9133C25.9256 34.2371 26.1562 33.9595 25.9025 34.2603C25.7872 34.3991 25.7411 34.5841 25.6949 34.7461C25.718 34.7461 25.7411 34.7692 25.7641 34.7692C25.8564 34.6535 25.9256 34.5379 26.0179 34.4222C26.1101 34.3065 26.2024 34.214 26.3869 34.0058C26.6868 33.6819 26.4561 33.9364 26.779 33.6357C27.0558 33.3812 28.2552 31.9932 28.6243 31.8082C28.6935 31.7619 28.7857 31.7156 28.878 31.7156C28.9241 31.7156 29.0394 31.7388 29.0394 31.785C29.0625 31.8313 29.0164 31.9238 28.9702 31.9701C28.9472 32.0163 28.878 32.0163 28.8088 32.1089C28.8549 32.1089 28.9241 32.1551 28.9702 32.132C29.0625 32.1089 29.1548 32.0395 29.224 31.9932C29.3854 31.947 29.4777 31.9701 29.5699 32.0395Z" fill="#FF69D9"/>
</svg>
