<?xml version="1.0" encoding="utf-8"?>
<!-- Generator: Adobe Illustrator 22.0.1, SVG Export Plug-In . SVG Version: 6.00 Build 0)  -->
<svg version="1.1" id="Layer_1" xmlns="http://www.w3.org/2000/svg" xmlns:xlink="http://www.w3.org/1999/xlink" x="0px" y="0px"
	 viewBox="0 0 637.2 637.2" style="enable-background:new 0 0 637.2 637.2;" xml:space="preserve">
<style type="text/css">
	.st0{fill:#FF69D9;}
	.st1{fill:#FFFFFF;}
</style>
<g>
	<circle class="st0" cx="318.6" cy="318.6" r="318.6"/>
	<g>
		<g>
			<path class="st1" d="M318.2,477.6c-17.8,0-34.7-5.3-47.6-15l11.8-15.8c9.6,7.1,22.3,11.1,35.8,11.1c13.6,0,26.3-3.9,35.8-11.1
				l11.8,15.8C352.9,472.3,336,477.6,318.2,477.6z"/>
		</g>
		<path class="st1" d="M439.5,431.4h-258l7.4-14.4c0.2-0.3,18.6-37.3,18.6-96.4c0-1.9,0-4-0.1-6.3c-0.5-30.5-1.7-100.9,69.1-126.9
			c2.8-14.9,10.7-40,42-40c31.3,0,39.3,25.1,42,40c70.8,26.1,69.6,96.4,69.1,126.9c0,2.3-0.1,4.4-0.1,6.3c0,30.8,5.1,55.4,9.3,70.5
			c4.6,16.5,9.3,25.7,9.3,25.8l7.3,14.3L439.5,431.4z M212.5,411.7h212.3c-6.2-17.1-14.8-48.7-14.8-91c0-2,0-4.2,0.1-6.6
			c0.3-15.1,0.6-37.9-7.1-59.4c-9.1-25.3-26.7-41.7-54-50.4l-5.9-1.9l-0.9-6.1c-3.3-21.8-9.2-29.2-23.5-29.2
			c-14.3,0-20.2,7.4-23.5,29.2l-0.9,6.1l-5.9,1.9c-27.2,8.6-44.9,25.1-54,50.4c-7.7,21.5-7.4,44.3-7.1,59.4c0,2.4,0.1,4.7,0.1,6.6
			C227.3,363,218.6,394.6,212.5,411.7z"/>
	</g>
</g>
</svg>
