<?xml version="1.0" encoding="utf-8"?>
<!-- Generator: Adobe Illustrator 22.0.1, SVG Export Plug-In . SVG Version: 6.00 Build 0)  -->
<svg version="1.1" id="Layer_1" xmlns="http://www.w3.org/2000/svg" xmlns:xlink="http://www.w3.org/1999/xlink" x="0px" y="0px"
	 viewBox="0 0 512.3 512.3" style="enable-background:new 0 0 512.3 512.3;" xml:space="preserve">
<style type="text/css">
	.st0{opacity:0.3;fill:none;}
	.st1{fill:#59ADEB;}
</style>
<g>
	<rect x="0.2" y="0" class="st0" width="512.3" height="512.3"/>
	<path class="st1" d="M395.6,170.3c-9.5,4.9-20.9,8-31.9,8c11.4-6.4,20.9-17.4,23.9-30.3c-11.4,6.4-22.4,11.4-35.3,12.9
		c-9.9-9.5-23.9-15.9-40.2-15.9c-30.3,0-56.1,23.9-56.1,54.2c0,4.9,0,8,1.5,12.9c-45.9-3-86.1-23.9-113-57.6c-4.9,8-8,17.8-8,27.3
		c0,19.3,9.5,35.3,23.9,44.7c-9.5,0-17.4-3-25.4-6.4l0,0c0,25.4,19.3,47.8,44.7,52.7c-3,1.5-8,3-12.9,3c-3,0-6.4,0-11.4-1.5
		C162,295,182.9,311,206.8,311c-19.3,14.4-43.2,22.4-68.6,22.4c-4.9,0-9.5,0-12.9,0c23.9,15.9,54.2,23.9,84.6,23.9
		c102.4,0,158.1-81.5,158.1-153.6v-6.4C379.3,189.6,389.1,181.7,395.6,170.3L395.6,170.3z"/>
</g>
</svg>
