<?xml version="1.0" encoding="utf-8"?>
<!-- Generator: Adobe Illustrator 22.0.1, SVG Export Plug-In . SVG Version: 6.00 Build 0)  -->
<svg version="1.1" id="Layer_1" xmlns="http://www.w3.org/2000/svg" xmlns:xlink="http://www.w3.org/1999/xlink" x="0px" y="0px"
	 viewBox="0 0 512.3 512.3" style="enable-background:new 0 0 512.3 512.3;" xml:space="preserve">
<style type="text/css">
	.st0{opacity:0.3;fill:none;}
	.st1{fill:#46668C;}
</style>
<g>
	<rect class="st0" width="512.3" height="512.3"/>
	<g>
		<path class="st1" d="M348.1,268.5c-8.4-8.8-14.5-14.5-28.7-17.2v-1.5c10.3-4.6,18-10.7,23.7-18.3c5.7-8,8.4-17.2,8.4-27.5
			c0-8.8-1.9-16.8-6.1-23.7c-4.2-6.9-10.3-12.6-18.7-16.8c-8-3.8-16-6.5-24.5-7.6c-8-1.1-26.4-1.5-43.9-1.5h-85.2v214.4H269
			c16,0,29-1.5,39.4-4.2c10.3-2.7,19.9-7.3,28.7-13.4c7.3-5.3,13.4-12.2,17.6-20.3s6.5-17.2,6.5-27.9
			C360.7,288.8,356.5,277.3,348.1,268.5z M283.5,322.4c-4.2,2.3-10.3,3.4-18,3.4h-32.9V275h33.6c7.6,0,13.4,1.1,18,3.1
			c7.6,3.8,11.5,10.7,11.5,20.6C295.3,310.6,291.1,318.6,283.5,322.4z M280.4,234.2c-5,3.1-11.1,4.6-18.7,4.6h-29v-42h24.5
			c8.4,0,15.7,1.1,21,3.1c6.5,2.7,9.6,8.8,9.6,17.6C287.7,225.8,285,231.1,280.4,234.2z"/>
	</g>
</g>
</svg>
